<?xml version="1.0" encoding="utf-8"?>
<!-- Generator: Adobe Illustrator 17.0.0, SVG Export Plug-In . SVG Version: 6.00 Build 0)  -->
<!DOCTYPE svg PUBLIC "-//W3C//DTD SVG 1.1//EN" "http://www.w3.org/Graphics/SVG/1.1/DTD/svg11.dtd">
<svg version="1.1" id="Layer_2" xmlns="http://www.w3.org/2000/svg" xmlns:xlink="http://www.w3.org/1999/xlink" x="0px" y="0px"
	 width="337.5px" height="281.5px" viewBox="0 0 337.5 281.5" enable-background="new 0 0 337.5 281.5" xml:space="preserve">
<path d="M305.333,154.167c0,2-2.333,1.333-2.667,2.667c-0.333,1.333-1.333,5.667-5,7c-3.667,1.333-10-0.667-11.333-2.333
	c-1.333-1.667-4-3-5.667-2c-1.667,1-3.333,5-5.333,5s-4-3-1.667-5.333c2.333-2.333,7.667-7,15.333-8.333
	c7.667-1.333,10.333,0.667,12,1.333C302.667,152.833,305.333,153.5,305.333,154.167z"/>
<path d="M253,149.167c0.75-4.667,7-14.333,12.667-17c5.667-2.667,11.333-3.333,13.667-2c2.333,1.333,8.333,0.333,11.667-0.667
	s12.333-0.333,15-1.333c2.667-1,4.25,0.833,5.5,2.583s0.25,3-1.5,3.75s0.5,2.5-1.25,4s-3.25,0.75-4.75,2.25s-14.25-0.75-18-0.25
	s-10,1-14.25,1.5s-7.25,3.5-9.75,4.5S259.5,145.833,253,149.167z"/>
<path d="M249.25,244.5c0.75-1.75,1.75-1,1.75-1.5s0.25-12-0.25-12.5s-1.625-2.375-2.875-2.375s-7.375,0.375-8.25-0.875
	c0,0,0.875,3.125,2.125,4.625s6.5,6.75,6.75,8S248.125,244.5,249.25,244.5z"/>
<path d="M226.167,202.5c-2.01-0.268-1.583-3.333-1.917-7.333s-0.625-12-3.625-14.667s-0.312-5.667-1.646-8.667
	c-1.333-3-4.323-7.667-4.323-11.667s1.339-10-0.328-13.333c-1.667-3.333-1.331-10.333-0.664-14.333s-1.999-5-1.999-6.667
	c0-1.667-1.333-2.667-1.333-6c0-3.333,1.667-6.333,1-9c-0.667-2.667-3.333-3-3.333-6.667c0-3.667,7.667-13,8.333-18.333
	c0.667-5.333-2.333-2.333-2-5c0.333-2.667,4.667-19,8-22.667c3.333-3.667,5-7.667,7.667-8.667c2.667-1,10.333-6,13.667-6
	c0,0-0.667-4.333,1-5c1.667-0.667,8-5,17.667-4c2,0,1.333-6.333,1.333-8.333S269,22.5,273,19.5s9.667-7.333,15.333-9.667
	C294,7.5,299.667,5.167,304.667,5.167s6.333,3,9,3.667c2.667,0.667,6.5-2.667,10.5-2.667s8.667,0.333,12.667,4V66.5
	c0,0-17.5-9-26.833-10.667c-9.333-1.667-16.667,2.667-21,3.667s-10.333,0.667-16.667,2.667c-6.333,2-12,8-16.333,15.333
	c-4.333,7.333-3.333,13-7.667,19c-4.333,6-0.333,13.333-1,18.667c-0.667,5.333-4,17.333-4.667,26.333
	C242,150.5,244,157.167,244,162.833c0,5.667-1.333,12-1,22.333c0.333,10.333-2.667,9-5,9s-5.333-7.333-7.667-5.667
	C226,190.25,228.667,202.833,226.167,202.5z"/>
<path d="M0.583,66.5V10.167c0,0,2.917,4.333,4.667,4.583s7,3.75,8.75,4.25s1.75-7.5-3.5-9c0,0,3.5-1.25,7.5-0.5s1.5-3.75-2.25-3.75
	c0,0,0-2,1.25-1.75s6.75,0.5,11.25,4.5s12.25,7,20,8.5s26,0.75,28.5-2c0,0,0.5,4-1,4.75c0,0,7.25,3.75,9.5,6.75s1,5.25,3.5,7
	s-1.75,4-4.5,5c0,0,7.5-0.25,10.5,2s9,0.25,8.75,3s-3.75,2.75-4.75,4.25c0,0,9.5,0.25,11,2.25s15.25,17.25,17.5,22.25
	s7.25,15.5,7.25,18.25s-0.25,5,1.75,14s-4,19.25-4,26s-7.25,14.5-6,22.5s5,10.5-4,29c0,0-4,12.5-3.5,16.25c0,0-2.25-6-2-10.25
	c0,0-2.25,1.5-4,0.75s-5.75-4-8.25-3.25s-5.5,7.25-7.75,8.25s-0.5-5.5-1.25-9s-0.25-6.5-0.25-13.25s-0.5-15.75-1.75-24.75
	s-6.5-26-6.5-29.5s-2.5-6.25-2.75-9.75S82.5,100,81.5,99c0,0,0.75-1.25,3.75,1s2.75-0.5,1.5-2.5s-1.25-5-4.75-5.25S78.25,89,74.5,86
	s-11-8-24.25-9.5s-20.5,2-36.5-4.25C3.25,67.75,0.583,66.5,0.583,66.5z"/>
<path d="M40.75,161c6.5,0,8-2.5,10.75-4s8,0,10,0.75s2-1.25,0.5-3s-5.5-5.5-11-6.75s-5.5-1.5-11-0.5s-6.5,2.5-6.5,3.75
	s1.5,2.75,1.75,4.25S36.5,161,40.75,161z"/>
<path d="M94.333,220.833c-0.083,11.542-3.667,19.333-5.333,26c-1.667,6.667-8,16.667-8,19.333c0,2.667,0.333,11.333,1.667,12.667
	c1.333,1.333,5.667-1.333,7.667-9.667c2-8.333,6.667-18.667,8.667-22c2-3.333,2-5.667,2-10c0,0,3.667,5.667,4,1.333
	s4.667-14.333-1-16.667c0,0-3-0.333-4.333-0.667c-1.333-0.333-2.333-2.667-4.333-2.667C94.5,218.5,94.333,220.25,94.333,220.833z"/>
<path d="M39.667,127.5c6.667,0,10.333-2.333,14.333-2.333s22.333,6,27.333,13.667c2.667,4.667,0.333,6.333,0.333,6.333
	s-1.667-1-4-0.667c-2.333,0.333-6.667-2.667-10.333-4.333c-3.667-1.667-9.333-4.333-18-4.333s-10,3.333-19.667,3.333
	c-5.333,0-8.167-1.833-8.833-3.333c-0.667-1.5-1-4.5,0.5-6s2-2.5,4-3s4.833-0.667,7.5-0.667S37.333,127.5,39.667,127.5z"/>
</svg>
